HIERARCHY
ROOT Hips
{
	OFFSET 0.00000 0.00000 0.00000
	CHANNELS 6 Xposition Yposition Zposition Zrotation Yrotation Xrotation 
	JOINT LHipJoint
	{
		OFFSET 0 0 0
		CHANNELS 3 Zrotation Yrotation Xrotation
		JOINT LeftHip
		{
			OFFSET 1.86795 -1.59681 0.65681
			CHANNELS 3 Zrotation Yrotation Xrotation
			JOINT LeftKnee
			{
				OFFSET 2.30491 -6.33268 0.00000
				CHANNELS 3 Zrotation Yrotation Xrotation
				JOINT LeftAnkle
				{
					OFFSET 2.46780 -6.78022 0.00000
					CHANNELS 3 Zrotation Yrotation Xrotation
					JOINT LeftToe
					{
						OFFSET 0.07897 -0.21698 1.59652
						CHANNELS 3 Zrotation Yrotation Xrotation
						End Site
						{
							OFFSET 0.00000 -0.00000 0.82310
						}
					}
				}
			}
		}
	}
	JOINT RHipJoint
	{
		OFFSET 0 0 0
		CHANNELS 3 Zrotation Yrotation Xrotation
		JOINT RightHip
		{
			OFFSET -1.93650 -1.59681 0.65681
			CHANNELS 3 Zrotation Yrotation Xrotation
			JOINT RightKnee
			{
				OFFSET -2.29410 -6.30299 0.00000
				CHANNELS 3 Zrotation Yrotation Xrotation
				JOINT RightAnkle
				{
					OFFSET -2.48738 -6.83403 0.00000
					CHANNELS 3 Zrotation Yrotation Xrotation
					JOINT RightToe
					{
						OFFSET -0.08699 -0.23899 1.89395
						CHANNELS 3 Zrotation Yrotation Xrotation
						End Site
						{
							OFFSET -0.00000 -0.00000 0.96904
						}
					}
				}
			}
		}
	}
	JOINT lowerback
	{
		OFFSET 0 0 0
		CHANNELS 3 Zrotation Yrotation Xrotation
		JOINT Chest
		{
			OFFSET 0.03629 1.99740 -0.07548
			CHANNELS 3 Zrotation Yrotation Xrotation
			JOINT Chest2
			{
				OFFSET 0.03970 1.94298 0.17218
				CHANNELS 3 Zrotation Yrotation Xrotation
				JOINT lowerneck
				{
					OFFSET 0 0 0
					CHANNELS 3 Zrotation Yrotation Xrotation
					JOINT Neck
					{
						OFFSET -0.05054 1.79469 0.04241
						CHANNELS 3 Zrotation Yrotation Xrotation
						JOINT Head
						{
							OFFSET 0.05195 1.78475 -0.22133
							CHANNELS 3 Zrotation Yrotation Xrotation
							End Site
							{
								OFFSET 0.02420 1.80711 -0.07950
							}
						}
					}
				}
				JOINT LeftCollar
				{
					OFFSET 0 0 0
					CHANNELS 3 Zrotation Yrotation Xrotation
					JOINT LeftShoulder
					{
						OFFSET 2.92134 1.19850 0.36056
CHANNELS 3 Zrotation Xrotation Yrotation
						JOINT LeftElbow
						{
OFFSET 0 -4.841370 0.000000
CHANNELS 3 Zrotation Xrotation Yrotation
							JOINT LeftWrist
							{
OFFSET 0 -3.245200 -0.000000
CHANNELS 3 Zrotation Xrotation Yrotation
								JOINT lhand
								{
									OFFSET 0 0 0
CHANNELS 3 Zrotation Xrotation Yrotation
									JOINT LFingers
									{
OFFSET 0 -0.521220 0.000000
CHANNELS 3 Zrotation Xrotation Yrotation
										End Site
										{
OFFSET 0 -0.420220 0.000000
										}
									}
								}
								JOINT LThumb
								{
OFFSET 0 0.000000 0.000000
CHANNELS 3 Zrotation Xrotation Yrotation
									End Site
									{
OFFSET 0 -0.426640 0.426640
									}
								}
							}
						}
					}
				}
				JOINT RightCollar
				{
					OFFSET 0 0 0
					CHANNELS 3 Zrotation Yrotation Xrotation
					JOINT RightShoulder
					{
						OFFSET -2.84327 1.20795 0.50191
CHANNELS 3 Zrotation Xrotation Yrotation
						JOINT RightElbow
						{
OFFSET 0 -4.722840 0.000000
CHANNELS 3 Zrotation Xrotation Yrotation
							JOINT RightWrist
							{
OFFSET 0 -3.234590 0.000000
CHANNELS 3 Zrotation Xrotation Yrotation
								JOINT rhand
								{
									OFFSET 0 0 0
CHANNELS 3 Zrotation Xrotation Yrotation
									JOINT RFingers
									{
OFFSET 0 -0.307420 0.000000
CHANNELS 3 Zrotation Xrotation Yrotation
										End Site
										{
OFFSET 0 -0.247850 0.000000
										}
									}
								}
								JOINT RThumb
								{
OFFSET 0 0.000000 0.000000
CHANNELS 3 Zrotation Xrotation Yrotation
									End Site
									{
OFFSET 0 -0.251630 0.251630
									}
								}
							}
						}
					}
				}
			}
		}
	}
}
MOTION
Frames: 11
Frame Time: 0.008333333333333333
6.625261 16.277352 -3.403815 -2.462646 -48.579287 -1.974723 0.000000 0.000000 0.000000 -24.149633 -2.090450 7.463611 3.030433 10.744227 31.421912 0.628475 6.771458 -18.949744 0.028252 1.078849 2.965748 0.000000 0.000000 0.000000 18.198459 26.669290 -6.636268 -1.331715 -7.307671 20.630086 0.039426 -11.565321 -15.894708 -0.584147 4.888728 -13.592537 -1.572710 -0.766345 -7.765990 2.460567 -1.175989 -11.374831 3.482312 -0.472948 -7.553573 -2.170270 2.960774 -1.600632 10.551557 2.598426 15.019651 3.736233 1.701096 4.547999 0.000000 0.000000 0.000000 74.763779 0.768410 37.400502 16.466383 -26.148823 3.849186 -78.339369 -67.867500 -13.391664 0.000000 0.000000 0.000000 -7.125000 0.000000 0.000000 -42.645301 3.210399 -62.836754 0.000000 0.000000 0.000000 -74.736519 2.397850 -32.493130 -15.469247 -24.795616 -3.420338 25.051073 -59.901175 -8.717587 0.000000 0.000000 0.000000 7.125000 0.000000 0.000000 34.495742 19.943755 25.908716
6.627464 16.266601 -3.439947 -2.713058 -48.462955 -1.524195 0.000000 0.000000 0.000000 -23.760558 -1.983377 6.729792 3.126987 10.897757 31.935966 0.617309 6.822391 -18.872008 0.004043 0.393099 1.080134 0.000000 0.000000 0.000000 18.288009 26.558206 -6.904541 -1.305552 -7.238142 20.422907 0.374954 -13.835860 -14.353280 -1.096988 6.655397 -18.698425 -1.651230 -0.645204 -7.188730 2.613968 -0.997538 -11.244629 3.700016 -0.363386 -7.747999 -2.600357 2.947598 -1.536231 10.541539 2.675862 14.353095 3.790769 1.703438 4.320712 0.000000 0.000000 0.000000 74.886643 1.548313 39.479513 16.723906 -26.492009 3.963559 -87.370514 -82.333828 -4.138716 0.000000 0.000000 0.000000 -7.125000 0.000000 0.000000 -41.957957 -12.834515 -70.560383 0.000000 0.000000 0.000000 -74.793182 3.992842 -34.607035 -15.721341 -25.141380 -3.526786 25.860684 -62.427229 -9.332916 0.000000 0.000000 0.000000 7.125000 0.000000 0.000000 34.793877 19.316025 26.799569
6.627695 16.286035 -3.471710 -2.860538 -47.870685 -0.424311 0.000000 0.000000 0.000000 -23.551421 -2.702601 5.589879 3.150620 10.935022 32.061048 0.516036 7.740295 -18.549092 0.046207 -1.351588 -3.717321 0.000000 0.000000 0.000000 17.953292 26.899029 -7.486217 -1.217998 -7.000284 19.716178 0.300302 -13.869010 -15.690755 -0.757588 5.551669 -15.490724 -1.653238 -0.626340 -6.647335 2.514825 -0.964658 -11.048730 3.600718 -0.345298 -7.840995 -2.042128 2.841480 -1.207650 9.709103 2.769392 12.416011 3.395336 1.692176 3.703013 0.000000 0.000000 0.000000 75.499933 6.343053 46.480171 15.931620 -25.427906 3.616549 -75.512237 -65.287738 -17.312431 0.000000 0.000000 0.000000 -7.125000 0.000000 0.000000 -45.335795 15.497500 -52.937904 0.000000 0.000000 0.000000 -74.401265 11.336742 -36.105672 -15.796702 -25.244182 -3.558818 6.701604 -68.087863 -6.838547 0.000000 0.000000 0.000000 7.125000 0.000000 0.000000 23.993107 23.083829 13.899376
6.598550 16.324028 -3.475406 -2.652550 -47.177446 0.763507 0.000000 0.000000 0.000000 -23.750330 -4.213200 5.267162 2.930558 10.581637 30.881706 0.646394 7.021990 -19.339456 0.253774 3.188200 8.807688 0.000000 0.000000 0.000000 17.263524 27.965047 -8.421118 -1.208448 -6.973850 19.637914 0.125859 -12.918136 -16.696160 -0.437374 4.240136 -11.753857 -1.570721 -0.443457 -6.433307 2.196928 -0.712630 -10.514555 3.206070 -0.242352 -7.388726 -2.337997 2.709063 -1.866165 9.402695 2.881876 9.485604 3.668338 1.666332 3.250090 0.000000 0.000000 0.000000 75.502554 14.340613 48.463769 15.340950 -24.618769 3.366758 -44.738473 -38.198786 -36.204387 0.000000 0.000000 0.000000 -7.125000 0.000000 0.000000 -75.138639 51.783944 22.949129 0.000000 0.000000 0.000000 -72.991999 21.862921 -39.690346 -15.373764 -24.664222 -3.380368 -13.637469 -68.314320 -4.989612 0.000000 0.000000 0.000000 7.125000 0.000000 0.000000 9.727575 24.838767 4.815865
6.578707 16.355757 -3.489790 -2.898324 -46.437097 2.580031 0.000000 0.000000 0.000000 -23.421086 -5.613266 4.204855 2.811878 10.384131 30.229834 0.473375 8.646145 -18.911615 0.012053 -0.671015 -1.844207 0.000000 0.000000 0.000000 16.629005 28.740465 -9.827386 -1.157755 -6.831117 19.216146 0.311476 -14.588051 -16.828629 -0.670631 5.232694 -14.574311 -1.345113 -0.359050 -5.699123 2.213007 -0.608849 -10.917628 3.117277 -0.193256 -8.265808 -2.467441 2.682894 -2.247713 8.758848 3.003610 8.307101 3.440800 1.694677 2.913032 0.000000 0.000000 0.000000 74.802530 20.766160 60.731620 13.380061 -21.840426 2.593693 -16.258029 -3.661238 -55.644468 0.000000 0.000000 0.000000 -7.125000 0.000000 0.000000 -87.578555 66.486545 61.589289 0.000000 0.000000 0.000000 -71.783595 31.213396 -45.814376 -14.053891 -22.810646 -2.849685 -39.348878 -67.549632 -4.366371 0.000000 0.000000 0.000000 7.125000 0.000000 0.000000 -9.428253 24.317471 -4.806846
6.548534 16.347816 -3.504373 -2.322924 -46.284677 3.731096 0.000000 0.000000 0.000000 -23.798419 -6.600429 3.570677 2.617122 10.047633 29.131281 0.464233 9.627130 -19.769964 0.294529 -3.476545 -9.609673 0.000000 0.000000 0.000000 15.356122 29.966205 -11.421457 -1.158535 -6.833533 19.222994 0.317856 -14.926217 -17.340642 -0.591586 4.924210 -13.692606 -1.829725 -0.393775 -6.026490 2.173347 -0.673824 -11.412599 3.356125 -0.185727 -8.630123 -2.036105 2.754373 -2.020820 8.040901 3.181365 7.602739 3.086788 1.759981 2.631194 0.000000 0.000000 0.000000 75.684218 23.012389 88.129984 11.704079 -19.359404 2.003148 35.194833 62.969099 -69.776722 0.000000 0.000000 0.000000 -7.125000 0.000000 0.000000 -137.353958 -74.018279 -148.977528 0.000000 0.000000 0.000000 -70.814923 33.154239 -66.709498 -12.762673 -20.938487 -2.367819 -72.550656 -101.856036 -25.142804 0.000000 0.000000 0.000000 7.125000 0.000000 0.000000 -24.145252 -23.575288 -33.673531
6.545546 16.355336 -3.504468 -3.812059 -46.532557 4.790958 0.000000 0.000000 0.000000 -23.111054 -7.550767 4.574805 2.465548 9.774746 28.250426 0.680832 9.453248 -21.757993 0.001823 0.272112 0.747578 0.000000 0.000000 0.000000 16.597845 29.524271 -10.900610 -1.016639 -6.414821 17.992850 0.408940 -14.998379 -16.109462 -0.662360 5.199967 -14.481003 -0.651379 -0.331177 -5.827073 2.643395 -0.567571 -11.363981 3.196877 -0.208501 -8.697418 -2.656772 2.962728 -1.409811 8.416351 3.503054 6.983237 3.301508 1.892444 2.279972 0.000000 0.000000 0.000000 74.741334 23.778398 91.557032 12.024119 -19.840814 2.110515 82.929977 101.814279 -66.545244 0.000000 0.000000 0.000000 -7.125000 0.000000 0.000000 -175.005992 -63.055615 -177.804458 0.000000 0.000000 0.000000 -70.666100 32.495741 -68.855974 -12.614134 -20.719240 -2.315003 -91.340243 22.073667 23.726366 0.000000 0.000000 0.000000 7.125000 0.000000 0.000000 -36.634071 -54.739107 -52.768122
6.560977 16.320534 -3.494617 -2.653003 -46.622829 3.326409 0.000000 0.000000 0.000000 -24.587523 -7.318496 7.046877 2.009176 8.884729 25.435661 0.351499 12.304948 -21.477884 0.297336 -3.490577 -9.649349 0.000000 0.000000 0.000000 15.901803 28.722920 -11.407375 -1.202101 -6.955982 19.585095 0.348120 -14.610320 -16.318408 -0.785873 5.658999 -15.798258 -1.315810 -0.301439 -5.936490 2.454867 -0.532759 -11.261586 3.363347 -0.146187 -8.521075 -2.385716 2.785210 -1.537782 8.595698 3.136836 8.435185 3.354209 1.744677 2.816260 0.000000 0.000000 0.000000 74.206130 19.837904 82.779508 11.731972 -19.401445 2.012357 47.493028 66.495123 -71.401651 0.000000 0.000000 0.000000 -7.125000 0.000000 0.000000 -150.484320 -71.541106 -160.705512 0.000000 0.000000 0.000000 -71.618590 27.850388 -61.190199 -12.868705 -21.094477 -2.405859 -72.718691 -99.956413 -22.921646 0.000000 0.000000 0.000000 7.125000 0.000000 0.000000 -24.837355 -20.884736 -34.501284
6.586291 16.302719 -3.532644 -3.955344 -46.396476 4.000573 0.000000 0.000000 0.000000 -23.747523 -7.549086 7.743801 1.900645 8.655868 24.724611 0.461206 12.485675 -22.732678 0.142508 -2.395294 -6.600826 0.000000 0.000000 0.000000 16.947668 28.639004 -11.182948 -1.172941 -6.874259 19.343496 0.386836 -14.602254 -15.689737 -0.768928 5.597215 -15.620518 -0.553824 -0.335305 -6.836819 2.676665 -0.589581 -11.443376 3.163494 -0.236064 -8.203909 -2.343701 2.666194 -1.778245 9.593392 2.675617 11.112004 3.392395 1.620485 3.410681 0.000000 0.000000 0.000000 73.969777 12.950982 66.442531 12.222405 -20.137280 2.178328 6.846298 17.893171 -65.913259 0.000000 0.000000 0.000000 -7.125000 0.000000 0.000000 -98.281482 -73.813245 -115.267894 0.000000 0.000000 0.000000 -72.669690 19.206989 -52.156733 -13.207639 -21.590682 -2.529248 -52.144803 -66.261392 -10.325679 0.000000 0.000000 0.000000 7.125000 0.000000 0.000000 -16.895499 13.915737 -12.928102
6.642709 16.264503 -3.580912 -3.257109 -45.823965 2.816741 0.000000 0.000000 0.000000 -24.487104 -7.620848 9.159281 1.689322 8.186431 23.281834 0.281991 13.918292 -22.701112 0.320308 -3.599664 -9.957135 0.000000 0.000000 0.000000 16.469587 28.044940 -11.742094 -1.365779 -7.396645 20.895936 0.150377 -13.153056 -16.725281 -0.535629 4.688466 -13.022298 -1.150573 -0.754838 -7.283009 2.561468 -1.151445 -11.527360 3.368181 -0.476375 -8.003406 -2.484568 2.720222 -2.108162 10.663347 2.439749 13.319081 3.788713 1.596016 4.122163 0.000000 0.000000 0.000000 73.444251 4.818009 50.992744 13.393010 -21.860073 2.597937 -13.036902 -10.733039 -58.499190 0.000000 0.000000 0.000000 -7.125000 0.000000 0.000000 -92.842083 67.890153 69.126274 0.000000 0.000000 0.000000 -72.974470 9.307694 -37.670320 -14.108672 -22.889738 -2.870390 -42.269515 -68.245927 -6.381381 0.000000 0.000000 0.000000 7.125000 0.000000 0.000000 -11.213640 21.430484 -6.482692
6.709860 16.233733 -3.649468 -3.988658 -45.181244 2.574838 0.000000 0.000000 0.000000 -23.959250 -7.790049 10.090342 1.627961 8.043788 22.847287 0.602110 13.139902 -24.676843 0.197369 -2.841233 -7.838465 0.000000 0.000000 0.000000 17.244637 27.374207 -11.382211 -1.374276 -7.418627 20.961756 0.206473 -13.373662 -16.269617 -0.613600 5.013574 -13.947338 -0.901185 -0.812172 -7.076966 2.618767 -1.217890 -11.351972 3.287500 -0.523979 -7.921471 -2.432790 2.514717 -2.904637 11.075497 1.986807 14.521124 3.933637 1.444359 4.648588 0.000000 0.000000 0.000000 73.529097 -2.370553 39.669112 14.652240 -23.659032 3.085160 -45.113783 -40.426036 -38.374048 0.000000 0.000000 0.000000 -7.125000 0.000000 0.000000 -78.293321 52.717890 27.876999 0.000000 0.000000 0.000000 -73.024127 1.591567 -30.670814 -15.017839 -24.170936 -3.233264 -13.575257 -66.224373 0.505616 0.000000 0.000000 0.000000 7.125000 0.000000 0.000000 10.251082 30.402949 3.706730
